<?xml version="1.0" standalone="no"?>
<!DOCTYPE svg PUBLIC "-//W3C//DTD SVG 1.1//EN" "http://www.w3.org/Graphics/SVG/1.1/DTD/svg11.dtd" >
<svg xmlns="http://www.w3.org/2000/svg">
<metadata>
Created by FontForge 20120731 at Thu Nov 17 17:39:55 2016
 By admin
</metadata>
<defs>
<font id="iconfont" horiz-adv-x="1024" >
  <font-face 
    font-family="iconfont"
    font-weight="500"
    font-stretch="normal"
    units-per-em="1024"
    panose-1="2 0 6 3 0 0 0 0 0 0"
    ascent="896"
    descent="-128"
    x-height="792"
    bbox="0 -212 1201 896"
    underline-thickness="50"
    underline-position="-100"
    unicode-range="U+0078-E614"
  />
<missing-glyph horiz-adv-x="374" 
d="M34 0v682h272v-682h-272zM68 34h204v614h-204v-614z" />
    <glyph glyph-name=".notdef" horiz-adv-x="374" 
d="M34 0v682h272v-682h-272zM68 34h204v614h-204v-614z" />
    <glyph glyph-name=".null" horiz-adv-x="0" 
 />
    <glyph glyph-name="nonmarkingreturn" horiz-adv-x="341" 
 />
    <glyph glyph-name="x" unicode="x" horiz-adv-x="1001" 
d="M281 543q-27 -1 -53 -1h-83q-18 0 -36.5 -6t-32.5 -18.5t-23 -32t-9 -45.5v-76h912v41q0 16 -0.5 30t-0.5 18q0 13 -5 29t-17 29.5t-31.5 22.5t-49.5 9h-133v-97h-438v97zM955 310v-52q0 -23 0.5 -52t0.5 -58t-10.5 -47.5t-26 -30t-33 -16t-31.5 -4.5q-14 -1 -29.5 -0.5
t-29.5 0.5h-32l-45 128h-439l-44 -128h-29h-34q-20 0 -45 1q-25 0 -41 9.5t-25.5 23t-13.5 29.5t-4 30v167h911zM163 247q-12 0 -21 -8.5t-9 -21.5t9 -21.5t21 -8.5q13 0 22 8.5t9 21.5t-9 21.5t-22 8.5zM316 123q-8 -26 -14 -48q-5 -19 -10.5 -37t-7.5 -25t-3 -15t1 -14.5
t9.5 -10.5t21.5 -4h37h67h81h80h64h36q23 0 34 12t2 38q-5 13 -9.5 30.5t-9.5 34.5q-5 19 -11 39h-368zM336 498v228q0 11 2.5 23t10 21.5t20.5 15.5t34 6h188q31 0 51.5 -14.5t20.5 -52.5v-227h-327z" />
    <glyph glyph-name="uniE600" unicode="&#xe600;" 
d="M511 812q-147 0 -242.5 -25t-156.5 -86t-86.5 -156.5t-25.5 -242t25.5 -243t87 -158t157.5 -87.5t243 -26t242.5 25.5t156.5 87t86.5 157.5t25.5 243t-25.5 242.5t-87 156.5t-157.5 86.5t-243 25.5zM397 509q0 14 10 24t24 10h162q14 0 24 -10t10 -24v-68h-51v51h-128
v-51h-51v68zM307 31h-32q-13 0 -22.5 10t-9.5 23v305q0 14 9.5 23.5t22.5 9.5h32v-371zM678 31h-332v371h332v-371zM781 64q0 -13 -9.5 -23t-22.5 -10h-32v371h32q13 0 22.5 -9.5t9.5 -23.5v-305z" />
    <glyph glyph-name="uniE601" unicode="&#xe601;" 
d="M584 682q8 0 8 7.5t-8 7.5t-8 -7.5t8 -7.5zM613.5 682q7.5 0 7.5 7.5t-7.5 7.5t-7.5 -7.5t7.5 -7.5zM535 103h-74q-6 0 -10 -4.5t-4 -10.5t4 -10t10 -4h74q6 0 10.5 4t4.5 10t-4.5 10.5t-10.5 4.5zM648 659h-275q-17 0 -29.5 -12.5t-12.5 -29.5v-446q0 -17 12.5 -29
t29.5 -12h275q18 0 30 12t12 29v446q0 17 -12.5 29.5t-29.5 12.5zM653 832h-285q-126 0 -215.5 -89.5t-89.5 -216.5v-284q0 -127 89.5 -216t215.5 -89h285q126 0 215.5 89t89.5 216v284q0 127 -89.5 216.5t-215.5 89.5zM711 130q0 -35 -24.5 -59.5t-59.5 -24.5h-233
q-35 0 -59.5 24.5t-24.5 59.5v508q0 35 24.5 59.5t59.5 24.5h233q35 0 59.5 -24.5t24.5 -59.5v-508z" />
    <glyph glyph-name="uniE602" unicode="&#xe602;" 
d="M512 896q-512 0 -512 -512t512 -512t512 512t-512 512zM472 95q-42 -10 -85 4.5t-76 47.5q-34 32 -45.5 75t-2.5 84q43 10 86 -1.5t76 -44.5q16 -16 27.5 -36t17.5 -42t6 -44.5t-4 -42.5zM758.5 222q-11.5 -43 -44.5 -75q-16 -16 -38 -27t-46 -17.5t-50 -8.5t-51 -1h-36
v234q-36 4 -67 20q-24 12 -44.5 31t-35 42t-22.5 49.5t-8 55.5q0 40 16 76q30 -7 55 -22.5t45 -36.5q6 42 28 77t55 59q35 -24 57 -60t27 -79q20 22 45.5 38t55.5 23q15 -35 15 -75q0 -28 -8 -55t-22.5 -50t-34.5 -41.5t-44 -31.5q-18 -9 -36 -14.5t-38 -6.5v-167
q7 25 22.5 48.5t36.5 43.5q16 16 37 28.5t43 20t45 9.5t45 -3q9 -41 -2.5 -84z" />
    <glyph glyph-name="uniE603" unicode="&#xe603;" horiz-adv-x="1449" 
d="M723 861q-137 0 -226 -23.5t-146.5 -80t-81 -145.5t-23.5 -226t24 -226.5t81 -147.5t147 -82t226.5 -24t226 24t146.5 81.5t80.5 146.5t23.5 226t-24 226.5t-81.5 146.5t-146.5 80.5t-226 23.5zM356 570q84 -29 94 -31q25 -8 52 9q57 36 103 53q47 17 89 -10q1 -1 10 -9
q-42 -24 -45 -26q-34 -19 -53 -31q-23 -16 -31.5 -40t0.5 -49q8 -24 30 -38.5t45 -10.5q13 2 29 9q3 2 71 32q33 15 59 -11q91 -91 138 -137q10 -11 10.5 -24.5t-9.5 -23.5t-23.5 -9.5t-24.5 11.5q-29 29 -45 44l-2 2l-3 3q-1 1 -2.5 1t-3.5 -2q-1 -1 0.5 -5t3.5 -6
q14 -16 43 -45q13 -14 10.5 -30.5t-18.5 -24.5q-21 -10 -40 9q-27 27 -55 54l-9 6q-2 -8 6 -16q14 -15 42 -44q10 -11 11 -23q0 -23 -20 -31q-20 -9 -37 7q-31 33 -47 49q-5 5 -9 7l-6 1v-7q2 -3 6 -7t17 -18t20 -21q8 -9 8.5 -20.5t-5.5 -20.5q-9 -11 -23 -13t-24 7
q-6 5 -18 19q-2 2 -1 6q2 26 -10.5 47.5t-37.5 31.5q-4 2 -6 7q-12 33 -43 46q-5 2 -7 7q-11 31 -41 43q-5 2 -7 7q-10 29 -36 41t-56 5q-41 -9 -57 -49q-1 -1 -1 -2q-1 -1 -2 -1q-13 4 -39 13v259zM1104 318q-66 -12 -78 -14q-27 -4 -48 17q-25 25 -75.5 75t-75.5 75
q-24 23 -52 10q-13 -6 -85 -43l-26 -14q-16 -8 -32.5 -2.5t-24.5 20.5t-3.5 31.5t20.5 25.5q59 33 177 100h1q37 24 72 -5q50 -43 75 -64q19 -16 42 -11q18 4 53.5 11.5t52.5 11.5q2 1 7 1v-225zM578 132q-1 -1 -8.5 -3t-11.5 -2q-19 -4 -29 5q-15 13 -9 31q1 2 3 8.5t3 9.5
l-20 -5q-18 -3 -29 9t-5 29q1 4 6 17q-11 -3 -12 -3q-23 -8 -36 6.5t-8 34.5q4 18 17.5 32t30.5 16q20 3 34 -11t11 -34q-1 -3 -1 -6q25 3 39 -10q14 -14 9 -40q29 2 42 -13q14 -17 6 -42l16 2q20 -1 31 -16.5t5 -35.5q-5 -21 -29 -33t-45 -4q-11 4 -16.5 14.5t-1.5 22.5
q1 3 8 21z" />
    <glyph glyph-name="uniE604" unicode="&#xe604;" 
d="M384 166l181 51l-130 129zM867 518l-129 128l-284 -282l129 -129zM830 42q0 -34 -24 -57.5t-57 -23.5h-486q-33 0 -57 23.5t-24 57.5v485q0 34 24 57.5t57 23.5h324l81 81h-432q-55 0 -94.5 -39.5t-39.5 -95.5v-539q0 -56 39.5 -95.5t94.5 -39.5h540q56 0 95.5 39.5
t39.5 95.5v431l-81 -81v-323zM928 626l-81 80q-10 10 -25 9.5t-25 -10.5l-39 -39l129 -128l39 38q11 11 11.5 25.5t-9.5 24.5z" />
    <glyph glyph-name="uniE605" unicode="&#xe605;" horiz-adv-x="1449" 
d="M723 861q-137 0 -226 -23.5t-146.5 -80t-81 -145.5t-23.5 -226t24 -226.5t81 -147.5t147 -82t226.5 -24t226 24t146.5 81.5t80.5 146.5t23.5 226t-24 226.5t-81.5 146.5t-146.5 80.5t-226 23.5zM481 522q42 26 124.5 66.5t118.5 61.5q37 -22 119 -62.5t122 -64.5
q10 -137 -56.5 -264.5t-184.5 -197.5q-118 69 -185 196.5t-58 264.5zM692 333q-36 23 -84 51q30 -41 91 -116q15 17 52 58t63.5 72t49.5 62q-75 -44 -172 -127z" />
    <glyph glyph-name="uniE606" unicode="&#xe606;" 
d="M0 364h1024v-128h-1024v128z" />
    <glyph glyph-name="uniE607" unicode="&#xe607;" 
d="M933 377h-823v24h823v-24z" />
    <glyph glyph-name="uniE608" unicode="&#xe608;" 
d="M356 321l95 -184q3 8 9 22t26.5 55t43.5 80.5t59 92t73.5 96t86.5 85.5t99 68q-2 -19 -6.5 -63t-6 -67.5t4 -60.5t19.5 -70q-49 -11 -132 -89.5t-155 -171t-110 -160.5q-74 92 -156.5 159t-145.5 90z" />
    <glyph glyph-name="uniE609" unicode="&#xe609;" 
d="M510.5 830q-91.5 0 -174.5 -35.5t-143 -95.5t-95.5 -143t-35.5 -174t35.5 -174t95.5 -143t143 -95.5t174.5 -35.5t174 35.5t142.5 95.5t95.5 143t35.5 174t-35.5 174t-95.5 143t-142.5 95.5t-174 35.5zM663 212l-16 -16q-7 -7 -16 -7t-16 7l-145 145q-4 5 -4 25v285
q0 9 6.5 15.5t15.5 6.5h22q10 0 16.5 -6.5t6.5 -15.5v-278l130 -130q6 -6 6 -15.5t-6 -15.5z" />
    <glyph glyph-name="uniE60A" unicode="&#xe60a;" 
d="M512 272q-25 0 -42.5 -17.5t-17.5 -42.5v-144h120v144q0 25 -17.5 42.5t-42.5 17.5zM511.5 533q-11.5 0 -20.5 -8l-183 -170v-214q0 -27 23 -50t50 -23h41v144q0 38 26.5 64.5t63.5 26.5t63.5 -26.5t26.5 -64.5v-144h54q21 0 44 23q16 16 16 50v214l-184 170
q-9 8 -20.5 8zM512 748q-91 0 -174 -35.5t-143 -95.5t-95.5 -143t-35.5 -174t35.5 -174t95.5 -143t143 -95.5t174 -35.5t174 35.5t143 95.5t95.5 143t35.5 174t-35.5 174t-95.5 143t-143 95.5t-174 35.5zM800 297q-5 -5 -11 -5t-10 4l-33 30v-185q0 -47 -25 -72
q-32 -32 -65 -32h-54h-180h-41q-40 0 -71.5 32t-31.5 72v185l-33 -30q-11 -10 -21 1t1 21l246 229q17 16 40.5 16t40.5 -16l247 -229q11 -10 1 -21z" />
    <glyph glyph-name="uniE60B" unicode="&#xe60b;" 
d="M512 882q-103 0 -196 -40t-160.5 -107.5t-107.5 -161t-40 -196t40 -196t107.5 -161t160.5 -107t196 -39.5t196 39.5t160.5 107t107.5 161t40 196t-40 196t-107.5 161t-160.5 107.5t-196 40zM735 384q3 -12 3 -27q0 -19 -3 -32h-165v-76h165q3 -12 3 -27q0 -19 -3 -32
h-165v-135q-11 -2 -22 -3t-22 -1t-23 1q-11 1 -21 3v135h-158q-4 10 -4 29q0 8 1 15.5t3 14.5h158v76h-158q-4 10 -4 29q0 8 1 16t3 14h124l-159 279q11 2 24.5 3t25.5 1t25 -1t23 -3l141 -260l139 260q11 2 23 3t23.5 1t24.5 -1q12 -1 22 -3l-156 -279h131zM496 190z" />
    <glyph glyph-name="uniE60C" unicode="&#xe60c;" 
d="M772 600h-517q-4 0 -7.5 -3t-3.5 -7v-269q0 -4 3.5 -7t7.5 -3h517q4 0 7 3t3 7v269q0 4 -3 7t-7 3zM513 873q-102 0 -194.5 -39.5t-159.5 -106.5t-106.5 -160t-39.5 -194.5t39.5 -194.5t106.5 -160t159.5 -106.5t194.5 -39.5t194.5 39.5t159.5 106.5t107 160t40 194.5
t-40 194.5t-107 160t-159.5 106.5t-194.5 39.5zM823 238q0 -21 -15 -36t-37 -15h-175q0 -12 5 -25.5t10 -23t5 -13.5q0 -9 -6 -15t-14 -6h-166q-8 0 -14 6t-6 15q0 4 5 13.5t10 22.5t5 26h-175q-22 0 -37 15t-15 36v352q0 21 15 36t37 15h516q22 0 37 -15t15 -36v-352z" />
    <glyph glyph-name="uniE60D" unicode="&#xe60d;" 
d="M951 812v-1024l-439 256l-439 -256v1024h878z" />
    <glyph glyph-name="uniE60E" unicode="&#xe60e;" 
d="M122 713q0 46 32.5 78t79.5 32h558q46 0 78 -32t32 -78v-670q0 -46 -33 -79t-79 -33h-556q-47 0 -79.5 32t-32.5 80v670zM261 601h168q11 0 19 8t8 19t-8 19t-19 8h-168q-11 0 -19 -8t-8 -19q-2 -11 6.5 -19t20.5 -8v0zM261 208h446q11 0 19 8t8 19t-8 19t-19 8h-446
q-11 0 -19 -8t-8 -19t8 -19t19 -8v0zM261 321h446q11 0 19 7.5t8 18.5t-8 19t-19 8h-446q-11 0 -19 -8t-8 -19q-2 -10 6.5 -18t20.5 -8v0zM261 489h168q11 0 19 8t8 19t-8 18.5t-19 7.5h-168q-11 0 -19 -7.5t-8 -18.5q-2 -11 6.5 -19t20.5 -8v0zM261 99h334q11 0 19 8t8 19
t-8 18.5t-19 7.5h-334q-11 0 -19 -7.5t-8 -18.5t8 -19t19 -8v0z" />
    <glyph glyph-name="uniE60F" unicode="&#xe60f;" 
d="M961 731l-100 100l-348 -348l-348 348l-100 -100l348 -348l-348 -348l100 -100l348 349l348 -349l100 100l-349 348z" />
    <glyph glyph-name="uniE610" unicode="&#xe610;" 
d="M512 829q-91 0 -173.5 -35t-142.5 -95t-95.5 -143t-35.5 -174t35.5 -173.5t95.5 -142.5t142.5 -95.5t173.5 -35.5t174 35.5t142.5 95.5t95 142.5t35.5 173.5t-35.5 174t-95 143t-142.5 95t-174 35zM512 -1q-104 0 -192.5 51.5t-139.5 139.5t-51 192t51 192.5t139.5 140
t192.5 51.5t192.5 -51.5t139.5 -140t51 -192.5t-51 -192t-139.5 -139.5t-192.5 -51.5zM467 266q7 -7 7 -16t-7 -16l-4 -4q-6 -6 -15.5 -6t-15.5 6l-158 159q-7 7 -7 16t7 16l4 4q6 6 15.5 6t16.5 -7zM463 230q-7 -6 -16 -6t-16 7l-4 3q-6 7 -6 16.5t7 15.5l287 274q7 6 16 6
t16 -7l3 -4q7 -6 7 -15.5t-7 -15.5z" />
    <glyph glyph-name="uniE611" unicode="&#xe611;" 
d="M513.5 837q-91.5 0 -175 -35.5t-143.5 -96t-95.5 -144t-35.5 -174.5t35.5 -174t95.5 -143.5t143.5 -96t175 -35.5t174.5 36t143.5 96t96 143.5t35.5 174.5t-35.5 174t-96 143.5t-143.5 96t-174.5 35.5zM513 -19q-110 0 -203.5 54.5t-148.5 148.5t-55 204t54.5 203.5
t148.5 148.5t204 55q111 0 205 -55t148 -148.5t54 -203.5t-54.5 -204t-148.5 -148.5t-204 -54.5zM673.5 548q-8.5 8 -20 8t-20.5 -8l-120 -121l-119 119q-9 8 -20.5 8t-19.5 -8t-8 -19.5t8 -20.5l119 -119l-120 -120q-8 -8 -8 -19.5t8 -20t20 -8.5t20 8l120 120l119 -119
q8 -8 20 -8t20 8t8 20t-8 20l-119 119l120 121q9 8 9 20t-8.5 20z" />
    <glyph glyph-name="uniE612" unicode="&#xe612;" 
d="M914 66l-68 -18l-22 -82q-6 -23 -27.5 -35.5t-45.5 -6.5l-183 49l-291 -78q-24 -6 -45.5 6.5t-27.5 36.5l-38 143l-51 14q-24 6 -36.5 27.5t-6.5 45.5l35 131l-42 159q-7 24 5.5 45.5t36.5 28.5l68 18l21 81q7 24 28.5 36.5t45.5 5.5l183 -49l290 78q24 7 45.5 -5.5
t28.5 -36.5l38 -144l51 -13q24 -7 36.5 -28.5t5.5 -45.5l-35 -130l43 -160q7 -24 -5.5 -45.5t-36.5 -27.5zM709 -3q21 -5 40.5 4t28.5 28l-94 -25zM312 600q-21 5 -40.5 -4t-28.5 -28l94 25zM883 181l-109 405q-6 24 -27.5 36.5t-45.5 6.5l-521 -140q-24 -6 -36.5 -27.5
t-5.5 -45.5l108 -405q7 -24 28.5 -36.5t45.5 -5.5l520 139q24 7 36.5 28t6.5 45zM767 150l-463 -124q0 4 -0.5 10.5t-0.5 26t1 37.5t5.5 40.5t12 40t21 31.5t30.5 19q29 8 64.5 3t63.5 -15t63 -15.5t64 2.5q66 17 110 10.5t50 -29.5q4 -13 -1.5 -22t-12.5 -12zM633 362
q-30 -8 -57 7.5t-35 45.5t7.5 57t45.5 35t57 -7.5t35 -45.5t-7.5 -57t-45.5 -35z" />
    <glyph glyph-name="uniE613" unicode="&#xe613;" 
d="M25 367q0 98 38 187t102.5 153.5t154 103t187.5 38.5t187.5 -38.5t154 -103t102.5 -153.5t38 -187t-38 -187.5t-102.5 -154t-154 -102.5t-187.5 -38t-187.5 38t-154 102.5t-102.5 154t-38 187.5zM326 577l-30 -30l181 -180l-181 -181l30 -30l181 181l181 -181l30 30
l-181 181l181 180l-30 30l-181 -180z" />
    <glyph glyph-name="uniE614" unicode="&#xe614;" horiz-adv-x="1025" 
d="M535 450l146 -165l35 31l-204 230l-204 -230l35 -31l146 165v-371h46v371zM512 -128q-104 0 -199 40.5t-163.5 109t-109 163.5t-40.5 199t40.5 199t109 163.5t163.5 109t199 40.5t199 -40.5t163.5 -109t109 -163.5t40.5 -199t-40.5 -199t-109 -163.5t-163.5 -109
t-199 -40.5zM305 593h414v46h-414v-46z" />
  </font>
</defs>
</svg>
